<svg width="16" height="16" viewBox="0 0 16 16" fill="none" xmlns="http://www.w3.org/2000/svg">
<path d="M10.3073 9.34866C9.61592 9.75466 8.83858 10 7.99992 10C7.16125 10 6.38392 9.75466 5.69258 9.34866C3.26258 9.508 1.33325 11.5307 1.33325 14V15.1533L1.79659 15.302C1.88592 15.33 4.02525 16 7.99992 16C11.9746 16 14.1139 15.33 14.2033 15.302L14.6666 15.1533V14C14.6666 11.5307 12.7373 9.508 10.3073 9.34866Z" fill="white"/>
<path d="M8 8.66667C10.2527 8.66667 12 6.158 12 4C12 1.794 10.206 0 8 0C5.794 0 4 1.794 4 4C4 6.158 5.74733 8.66667 8 8.66667Z" fill="white"/>
</svg>
