<svg width="16" height="16" viewBox="0 0 16 16" fill="none" xmlns="http://www.w3.org/2000/svg">
<path d="M9.33333 1.33334H6.66667C6.29867 1.33334 6 1.632 6 2V14C6 14.368 6.29867 14.6667 6.66667 14.6667H9.33333C9.70133 14.6667 10 14.368 10 14V2C10 1.632 9.70133 1.33334 9.33333 1.33334Z" fill="#5E72E4"/>
<path d="M3.33333 8.66667H0.666667C0.298667 8.66667 0 8.96534 0 9.33334V14C0 14.368 0.298667 14.6667 0.666667 14.6667H3.33333C3.70133 14.6667 4 14.368 4 14V9.33334C4 8.96534 3.70133 8.66667 3.33333 8.66667Z" fill="#5E72E4"/>
<path d="M15.3333 5.33334H12.6667C12.2987 5.33334 12 5.632 12 6V14C12 14.368 12.2987 14.6667 12.6667 14.6667H15.3333C15.7013 14.6667 16 14.368 16 14V6C16 5.632 15.7013 5.33334 15.3333 5.33334Z" fill="#5E72E4"/>
</svg>
