<svg width="16" height="16" viewBox="0 0 16 16" fill="none" xmlns="http://www.w3.org/2000/svg">
<path d="M9.33325 13.3333L8.86192 13.8047L9.33325 14.276L9.80459 13.8047L9.33325 13.3333ZM3.99992 2C3.82311 2 3.65354 2.07024 3.52851 2.19526C3.40349 2.32029 3.33325 2.48986 3.33325 2.66667C3.33325 2.84348 3.40349 3.01305 3.52851 3.13807C3.65354 3.2631 3.82311 3.33333 3.99992 3.33333V2ZM5.52859 10.4713L8.86192 13.8047L9.80459 12.862L6.47125 9.52867L5.52859 10.4713ZM9.80459 13.8047L13.1379 10.4713L12.1953 9.52867L8.86192 12.862L9.80459 13.8047ZM9.99992 13.3333V6.66667H8.66659V13.3333H9.99992ZM5.33325 2H3.99992V3.33333H5.33325V2ZM9.99992 6.66667C9.99992 5.42899 9.50825 4.242 8.63308 3.36683C7.75791 2.49167 6.57093 2 5.33325 2V3.33333C6.21731 3.33333 7.06515 3.68452 7.69027 4.30964C8.3154 4.93477 8.66659 5.78261 8.66659 6.66667H9.99992Z" fill="#F59E0B"/>
</svg>
