<svg width="16" height="16" viewBox="0 0 16 16" fill="none" xmlns="http://www.w3.org/2000/svg">
<path d="M6.66673 2.66667L7.13806 2.19533L6.66673 1.724L6.19539 2.19533L6.66673 2.66667ZM12.0001 14C12.1769 14 12.3464 13.9298 12.4715 13.8047C12.5965 13.6797 12.6667 13.5101 12.6667 13.3333C12.6667 13.1565 12.5965 12.987 12.4715 12.8619C12.3464 12.7369 12.1769 12.6667 12.0001 12.6667V14ZM10.4714 5.52867L7.13806 2.19533L6.19539 3.138L9.52873 6.47133L10.4714 5.52867ZM6.19539 2.19533L2.86206 5.52867L3.80473 6.47133L7.13806 3.138L6.19539 2.19533ZM6.00006 2.66667V9.33333H7.33339V2.66667H6.00006ZM10.6667 14H12.0001V12.6667H10.6667V14ZM6.00006 9.33333C6.00006 10.571 6.49173 11.758 7.3669 12.6332C8.24207 13.5083 9.42905 14 10.6667 14V12.6667C9.78267 12.6667 8.93483 12.3155 8.3097 11.6904C7.68458 11.0652 7.33339 10.2174 7.33339 9.33333H6.00006Z" fill="#059669"/>
</svg>
